<?xml version="1.0" encoding="UTF-8"?>
<svg width="200" height="200" viewBox="0 0 200 200" fill="none" xmlns="http://www.w3.org/2000/svg">
  <rect width="200" height="200" fill="#F3F4F6"/>
  <path d="M100 60C77.909 60 60 77.909 60 100C60 122.091 77.909 140 100 140C122.091 140 140 122.091 140 100C140 77.909 122.091 60 100 60ZM100 130C83.431 130 70 116.569 70 100C70 83.431 83.431 70 100 70C116.569 70 130 83.431 130 100C130 116.569 116.569 130 100 130Z" fill="#9CA3AF"/>
  <path d="M100 80C88.954 80 80 88.954 80 100C80 111.046 88.954 120 100 120C111.046 120 120 111.046 120 100C120 88.954 111.046 80 100 80ZM100 110C94.477 110 90 105.523 90 100C90 94.477 94.477 90 100 90C105.523 90 110 94.477 110 100C110 105.523 105.523 110 100 110Z" fill="#6B7280"/>
</svg> 